<svg width="21" height="21" viewBox="0 0 21 21" fill="none" xmlns="http://www.w3.org/2000/svg">
<path d="M13 18.8334V15.5001C13.1159 14.4562 12.8166 13.4085 12.1667 12.5834C14.6667 12.5834 17.1667 10.9167 17.1667 8.00008C17.2333 6.95841 16.9417 5.93341 16.3333 5.08341C16.5667 4.12508 16.5667 3.12508 16.3333 2.16675C16.3333 2.16675 15.5 2.16675 13.8333 3.41675C11.6333 3.00008 9.36666 3.00008 7.16666 3.41675C5.49999 2.16675 4.66666 2.16675 4.66666 2.16675C4.41666 3.12508 4.41666 4.12508 4.66666 5.08341C4.05988 5.92998 3.76538 6.96074 3.83332 8.00008C3.83332 10.9167 6.33332 12.5834 8.83332 12.5834C8.50832 12.9917 8.26666 13.4584 8.12499 13.9584C7.98332 14.4584 7.94166 14.9834 7.99999 15.5001V18.8334" stroke="white" stroke-width="1.66667" stroke-linecap="round" stroke-linejoin="round"/>
<path d="M7.99984 15.4999C4.2415 17.1666 3.83317 13.8333 2.1665 13.8333" stroke="white" stroke-width="1.66667" stroke-linecap="round" stroke-linejoin="round"/>
</svg>
