<svg width="393" height="853" viewBox="0 0 393 853" fill="none" xmlns="http://www.w3.org/2000/svg">
<g clip-path="url(#clip0_83_1810)">
<rect y="0.5" width="393" height="852" rx="40" fill="white"/>
<rect x="130" y="838.5" width="134" height="5" rx="2.5" fill="black"/>
<path d="M0 812.5C4.69262e-07 834.591 17.9086 852.5 40 852.5H0V812.5ZM393 852.5H353C375.091 852.5 393 834.591 393 812.5V852.5ZM239.5 10.5C249.717 10.5 258 18.7827 258 29C258 39.2173 249.717 47.5 239.5 47.5H150.5C140.283 47.5 132 39.2173 132 29C132 18.7827 140.283 10.5 150.5 10.5H239.5ZM40 0.5C17.9086 0.500006 7.87499e-06 18.4086 0 40.5V0.5H40ZM393 40.5C393 18.4086 375.091 0.500003 353 0.5H393V40.5Z" fill="black"/>
<path opacity="0.35" d="M352.091 22.8333C353.697 22.8333 355 24.0276 355 25.5003V31.5003C355 32.9729 353.697 34.1664 352.091 34.1664H333.909C332.303 34.1664 331 32.9729 331 31.5003V25.5003C331 24.0276 332.303 22.8333 333.909 22.8333H352.091ZM333.909 23.8333C332.958 23.8333 332.177 24.5029 332.098 25.3558L332.091 25.5003V31.5003C332.091 32.3721 332.821 33.0875 333.752 33.1605L333.909 33.1664H352.091C353.042 33.1664 353.823 32.497 353.902 31.6439L353.909 31.5003V25.5003C353.909 24.6284 353.179 23.9122 352.248 23.8392L352.091 23.8333H333.909ZM356 26.5003C356.805 26.8391 357.328 27.6272 357.328 28.5003C357.328 29.3733 356.805 30.1616 356 30.5003V26.5003Z" fill="black"/>
<path d="M59.3818 22.2765C61.1069 22.2765 62.4726 23.0941 63.2656 24.6066C63.8133 25.5794 64.0996 26.8383 64.0996 28.3341C64.0996 32.3074 62.3168 34.6544 59.3164 34.6544C57.1583 34.6543 55.5147 33.379 55.1631 31.4416H57.2646C57.5345 32.3325 58.3194 32.8888 59.333 32.8888C61.058 32.8888 62.08 31.2779 62.0801 28.5802H61.9414C61.3855 29.7001 60.2652 30.3457 58.8838 30.3459C56.6355 30.3459 55 28.6938 55 26.4211C55.0002 24.0014 56.815 22.2766 59.3818 22.2765ZM78.6113 30.3869H80.2061V32.1691H78.6113V34.3683H76.5918V32.1691H70.8281V30.2882C71.8909 28.3343 73.551 25.7098 75.6357 22.5705H78.6113V30.3869ZM87 34.3683H84.8906V24.6964H84.752L81.8164 26.757V24.7296L84.8984 22.5705H87V34.3683ZM282.667 29.8341C283.219 29.8344 283.667 30.282 283.667 30.8341V32.8341C283.667 33.3859 283.219 33.8339 282.667 33.8341H281.667C281.115 33.8341 280.667 33.3861 280.667 32.8341V30.8341C280.667 30.2819 281.115 29.8341 281.667 29.8341H282.667ZM287.334 27.8341C287.886 27.8346 288.334 28.2821 288.334 28.8341V32.8341C288.334 33.3858 287.886 33.8337 287.334 33.8341H286.334C285.782 33.8341 285.334 33.3861 285.334 32.8341V28.8341C285.334 28.2819 285.782 27.8341 286.334 27.8341H287.334ZM292 25.5002C292.552 25.5004 293 25.9482 293 26.5002V32.8341C293 33.3859 292.552 33.8339 292 33.8341H291C290.448 33.834 290 33.3859 290 32.8341V26.5002C290 25.9481 290.448 25.5003 291 25.5002H292ZM296.667 23.1671C297.219 23.1674 297.667 23.615 297.667 24.1671V32.8341C297.667 33.3859 297.219 33.8339 296.667 33.8341H295.667C295.115 33.8341 294.667 33.3861 294.667 32.8341V24.1671C294.667 23.6149 295.115 23.1671 295.667 23.1671H296.667ZM312.12 31.2306C313.396 30.1519 315.264 30.1521 316.54 31.2306C316.604 31.2885 316.641 31.371 316.643 31.4572C316.644 31.5436 316.611 31.6271 316.549 31.6877L314.552 33.7033C314.493 33.7625 314.413 33.796 314.33 33.7961C314.247 33.796 314.167 33.7624 314.108 33.7033L312.11 31.6877C312.049 31.6271 312.015 31.5434 312.017 31.4572C312.019 31.3709 312.056 31.2885 312.12 31.2306ZM67.4678 30.5334C68.2444 30.5334 68.7763 31.0815 68.7764 31.8253C68.7764 32.5611 68.2444 33.1173 67.4678 33.1173C66.6994 33.1172 66.1602 32.5611 66.1602 31.8253C66.1603 31.0816 66.6995 30.5335 67.4678 30.5334ZM351.667 24.8332C352.403 24.8333 353 25.4309 353 26.1671V30.8332C353 31.5694 352.403 32.167 351.667 32.1671H334.333C333.597 32.167 333 31.5694 333 30.8332V26.1671C333 25.4309 333.597 24.8333 334.333 24.8332H351.667ZM76.5107 24.2873C75.3826 25.955 74.1557 27.8928 72.7822 30.3127V30.4357H76.625V24.2873H76.5107ZM309.455 28.5412C312.203 25.9853 316.459 25.9855 319.207 28.5412C319.269 28.6009 319.305 28.6837 319.306 28.7697C319.307 28.8558 319.273 28.939 319.212 29.0002L318.058 30.1671C317.939 30.2862 317.746 30.2889 317.624 30.173C316.722 29.356 315.547 28.9034 314.33 28.9035C313.114 28.904 311.94 29.3564 311.038 30.173C310.916 30.2888 310.723 30.2862 310.604 30.1671L309.45 29.0002C309.39 28.9391 309.356 28.8556 309.356 28.7697C309.357 28.6837 309.393 28.6009 309.455 28.5412ZM59.3984 24.0343C58.0823 24.0343 57.0686 25.0396 57.0684 26.3556C57.0684 27.7046 58.0335 28.6701 59.3906 28.6701C60.7394 28.6699 61.7285 27.7049 61.7285 26.3888C61.7285 25.0562 60.7147 24.0344 59.3984 24.0343ZM306.79 25.8595C311.005 21.8206 317.655 21.8205 321.87 25.8595C321.931 25.9194 321.965 26.0018 321.966 26.0871C321.966 26.1726 321.932 26.2549 321.872 26.3156L320.716 27.4826C320.597 27.6021 320.404 27.6033 320.283 27.4855C318.677 25.959 316.546 25.1077 314.33 25.1076C312.114 25.1076 309.982 25.9587 308.376 27.4855C308.255 27.6035 308.062 27.6023 307.943 27.4826L306.787 26.3156C306.727 26.2549 306.693 26.1725 306.693 26.0871C306.694 26.0017 306.729 25.9193 306.79 25.8595ZM67.4678 24.4103C68.2444 24.4103 68.7764 24.9583 68.7764 25.7023C68.7762 26.438 68.2444 26.9855 67.4678 26.9855C66.6995 26.9854 66.1603 26.4379 66.1602 25.7023C66.1602 24.9584 66.6994 24.4104 67.4678 24.4103Z" fill="black"/>
</g>
<defs>
<clipPath id="clip0_83_1810">
<rect y="0.5" width="393" height="852" rx="40" fill="white"/>
</clipPath>
</defs>
</svg>
